# xmcd
#
# Track frame offsets: 
#        150
#        16540
#        36237
#        54899
#        70841
#        93555
#        112535
#        129390
#        145164
#        160448
#        182369
#        197652
#        216565
#        231742
#        247605
#        267510
#        287336
#        307357
#
# Disc length: 4351 seconds
#
# Revision: 1
# Processed by: cddbd v1.5.2PL0 Copyright (c) Steve Scherf et al.
# Submitted via: ExactAudioCopy v1.0b3
#
DISCID=fb10fd12
DTITLE=中村由真 - Myこれ!チョイス EIGHTEEN＋シングルコレクション PCCS-00011
DYEAR=2008
DGENRE=JPop
TTITLE0=ようこそEIGHTEEN MEMBERS CLUB
TTITLE1=砂にたてたキャンドル
TTITLE2=君の夢に飛びたい
TTITLE3=Endless Love
TTITLE4=やわらかなプレゼント
TTITLE5=水に落ちたヴァイオレット
TTITLE6=春風にNon
TTITLE7=涙をかくしたロンリィ・ボーイ
TTITLE8=Lady Wind
TTITLE9=青い月 蒼い恋
TTITLE10=ジレンマ
TTITLE11=シビアー
TTITLE12=パニック -I'm in panic-
TTITLE13=千年の涙
TTITLE14=ヘッドフォンより愛をこめて
TTITLE15=One Summer Lonely
TTITLE16=LAZY LAZY
TTITLE17=SWEET DESTINY
EXTD=YEAR: 2008
EXTT0=
EXTT1=
EXTT2=
EXTT3=
EXTT4=
EXTT5=
EXTT6=
EXTT7=
EXTT8=
EXTT9=
EXTT10=
EXTT11=
EXTT12=
EXTT13=
EXTT14=
EXTT15=
EXTT16=
EXTT17=
PLAYORDER=
